# xmcd CD database file
#
# Track frame offsets:
#	150
#	9754
#	40599
#	61792
#	77395
#	97429
#	121804
#	141520
#	147894
#
# Disc length: 2127 seconds
#
# Revision: 0
# Processed by: cddbd v1.5.1PL0 Copyright (c) Steve Scherf et al.
# Submitted via: CDex 1.51
#
DISCID=6d084d09
DTITLE=Kainkwartett - Das Kainkwartett
DYEAR=2001
DGENRE=Jazz
TTITLE0=St. Pauli
TTITLE1=II
TTITLE2=Bruchstück
TTITLE3=Miniatur Für Eine] Marionette
TTITLE4=Freizeit
TTITLE5=3 10
TTITLE6=Donauwelle
TTITLE7=Edeka
TTITLE8=Für Tea
EXTD=Edith Steyer s cl, Torsten Papenheim g, Axel Haller b YEAR: 2001
EXTT0=
EXTT1=
EXTT2=
EXTT3=
EXTT4=
EXTT5=
EXTT6=
EXTT7=
EXTT8=
PLAYORDER=
